<?xml version="1.0" encoding="utf-8" ?>
<svg xmlns="http://www.w3.org/2000/svg" xmlns:xlink="http://www.w3.org/1999/xlink" width="216" height="216" viewBox="0 0 216 216">
	<defs>
		<filter id="filter5402598008" filterUnits="userSpaceOnUse" color-interpolation-filters="sRGB">
			<feGaussianBlur in="SourceGraphic" stdDeviation="24"/>
		</filter>
	</defs>
	<g filter="url(#filter5402598008)">
		<path transform="matrix(1 0 0 1 48 48)" d="M60 0C26.8629 0 0 26.8629 0 60L0 60.09C0 93.2271 26.7729 120 59.91 120L60 120C93.1371 120 120 93.2271 120 60.09L120 60C120 26.8629 93.2271 0 60.09 0L60 0Z" fill-rule="nonzero" fill="rgb(255, 255, 255)" fill-opacity="0.2"/>
	</g>
	<defs>
		<clipPath id="clipPath2490051327">
			<path transform="matrix(1 0 0 1 48 48)" d="M0 0L120 0L120 120L0 120L0 0Z" fill-rule="nonzero"/>
		</clipPath>
	</defs>
	<g clip-path="url(#clipPath2490051327)">
		<defs>
			<clipPath id="clipPath9950887638">
				<path transform="matrix(1 0 0 1 48 48)" d="M0 0L120 0L120 120L0 120L0 0Z" fill-rule="nonzero"/>
			</clipPath>
		</defs>
		<g clip-path="url(#clipPath9950887638)">
			<path transform="matrix(1 0 0 1 126.75 126.75)" d="M1.875 0C0.839466 0 0 0.839466 0 1.875L0 16.875C0 17.9105 0.839466 18.75 1.875 18.75L16.875 18.75C17.9105 18.75 18.75 17.9105 18.75 16.875L18.75 1.875C18.75 0.839466 17.9105 0 16.875 0L1.875 0Z" fill-rule="nonzero" fill="rgb(255, 255, 255)" fill-opacity="0.902"/>
			<path transform="matrix(1 0 0 1 111.75 111.75)" d="M1.875 0C0.839466 0 0 0.839466 0 1.875L0 13.125C0 14.1605 0.839466 15 1.875 15L13.125 15C14.1605 15 15 14.1605 15 13.125L15 1.875C15 0.839466 14.1605 0 13.125 0L1.875 0Z" fill-rule="nonzero" fill="rgb(255, 255, 255)" fill-opacity="0.902"/>
			<path transform="matrix(1 0 0 1 145.5 145.5)" d="M1.875 0C0.839466 0 0 0.839466 0 1.875L0 13.125C0 14.1605 0.839466 15 1.875 15L13.125 15C14.1605 15 15 14.1605 15 13.125L15 1.875C15 0.839466 14.1605 0 13.125 0L1.875 0Z" fill-rule="nonzero" fill="rgb(255, 255, 255)" fill-opacity="0.902"/>
			<path transform="matrix(1 0 0 1 149.25 111.75)" d="M1.875 0C0.839466 0 0 0.839466 0 1.875L0 9.375C0 10.4105 0.839466 11.25 1.875 11.25L9.375 11.25C10.4105 11.25 11.25 10.4105 11.25 9.375L11.25 1.875C11.25 0.839466 10.4105 0 9.375 0L1.875 0Z" fill-rule="nonzero" fill="rgb(255, 255, 255)" fill-opacity="0.902"/>
			<path transform="matrix(1 0 0 1 111.75 149.25)" d="M1.875 0C0.839466 0 0 0.839466 0 1.875L0 9.375C0 10.4105 0.839466 11.25 1.875 11.25L9.375 11.25C10.4105 11.25 11.25 10.4105 11.25 9.375L11.25 1.875C11.25 0.839466 10.4105 0 9.375 0L1.875 0Z" fill-rule="nonzero" fill="rgb(255, 255, 255)" fill-opacity="0.902"/>
			<path transform="matrix(1 0 0 1 55.5 55.5)" d="M97.5 0L63.75 0C61.6789 0 59.9112 0.732233 58.4467 2.1967C56.9822 3.66117 56.25 5.42893 56.25 7.5L56.25 41.25C56.25 43.3211 56.9822 45.0888 58.4467 46.5533C59.9112 48.0178 61.6789 48.75 63.75 48.75L97.5 48.75C99.5711 48.75 101.339 48.0178 102.803 46.5533C104.268 45.0888 105 43.3211 105 41.25L105 7.5C105 5.42893 104.268 3.66116 102.803 2.1967C101.339 0.732233 99.5711 0 97.5 0ZM90 31.875C90 32.3928 89.8169 32.8347 89.4508 33.2008C89.0847 33.5669 88.6428 33.75 88.125 33.75L73.125 33.75C72.6072 33.75 72.1653 33.5669 71.7992 33.2008C71.4331 32.8347 71.25 32.3928 71.25 31.875L71.25 16.875C71.25 16.3572 71.4331 15.9153 71.7992 15.5492C72.1653 15.1831 72.6072 15 73.125 15L88.125 15C88.6428 15 89.0847 15.1831 89.4508 15.5492C89.8169 15.9153 90 16.3572 90 16.875L90 31.875ZM41.25 0L7.5 0C5.42893 0 3.66117 0.732233 2.1967 2.1967C0.732233 3.66117 0 5.42893 0 7.5L0 41.25C-2.98023e-07 43.3211 0.732232 45.0888 2.1967 46.5533C3.66116 48.0178 5.42893 48.75 7.5 48.75L41.25 48.75C43.3211 48.75 45.0888 48.0178 46.5533 46.5533C48.0178 45.0888 48.75 43.3211 48.75 41.25L48.75 7.5C48.75 5.42893 48.0178 3.66116 46.5533 2.1967C45.0888 0.732233 43.3211 0 41.25 0ZM33.75 31.875C33.75 32.3928 33.5669 32.8347 33.2008 33.2008C32.8347 33.5669 32.3928 33.75 31.875 33.75L16.875 33.75C16.3572 33.75 15.9153 33.5669 15.5492 33.2008C15.1831 32.8347 15 32.3928 15 31.875L15 16.875C15 16.3572 15.1831 15.9153 15.5492 15.5492C15.9153 15.1831 16.3572 15 16.875 15L31.875 15C32.3928 15 32.8347 15.1831 33.2008 15.5492C33.5669 15.9153 33.75 16.3572 33.75 16.875L33.75 31.875ZM41.25 56.25L7.5 56.25C5.42893 56.25 3.66117 56.9822 2.1967 58.4467C0.732233 59.9112 0 61.6789 0 63.75L0 97.5C-2.98023e-07 99.5711 0.732232 101.339 2.1967 102.803C3.66116 104.268 5.42893 105 7.5 105L41.25 105C43.3211 105 45.0888 104.268 46.5533 102.803C48.0178 101.339 48.75 99.5711 48.75 97.5L48.75 63.75C48.75 61.6789 48.0178 59.9112 46.5533 58.4467C45.0888 56.9822 43.3211 56.25 41.25 56.25ZM33.75 88.125C33.75 88.6428 33.5669 89.0847 33.2008 89.4508C32.8347 89.8169 32.3928 90 31.875 90L16.875 90C16.3572 90 15.9153 89.8169 15.5492 89.4508C15.1831 89.0847 15 88.6428 15 88.125L15 73.125C15 72.6072 15.1831 72.1653 15.5492 71.7992C15.9153 71.4331 16.3572 71.25 16.875 71.25L31.875 71.25C32.3928 71.25 32.8347 71.4331 33.2008 71.7992C33.5669 72.1653 33.75 72.6072 33.75 73.125L33.75 88.125Z" fill-rule="nonzero" fill="rgb(255, 255, 255)" fill-opacity="0.902"/>
		</g>
	</g>
</svg>
