<?xml version="1.0" encoding="utf-8" ?>
<svg xmlns="http://www.w3.org/2000/svg" xmlns:xlink="http://www.w3.org/1999/xlink" width="252.2188" height="317.1371" viewBox="0 0 252.2188 317.1371">
	<path transform="matrix(0.707107 0.707107 -0.707107 0.707107 126.109 -3.8147e-06)" d="M24 0C10.7452 0 0 10.7452 0 24L0 136C0 149.255 10.7452 160 24 160L136 160C149.255 160 160 149.255 160 136L160 24C160 10.7452 149.255 0 136 0L24 0Z" fill-rule="nonzero" fill="rgb(255, 255, 255)" fill-opacity="0.05"/>
	<path transform="matrix(0.978148 -0.207912 0.207912 0.978148 40.7131 57.6801)" d="M16 0C7.16344 0 0 7.16344 0 16L0 128C0 136.837 7.16344 144 16 144L128 144C136.837 144 144 136.837 144 128L144 16C144 7.16344 136.837 0 128 0L16 0Z" fill-rule="nonzero" fill="rgb(255, 255, 255)" fill-opacity="0.1"/>
	<defs>
		<filter id="filter9356025364" filterUnits="userSpaceOnUse" color-interpolation-filters="sRGB">
			<feComponentTransfer in="SourceAlpha" result="componentTransfer3158657202">
				<feFuncR type="linear" slope="0" intercept="0"/>
				<feFuncG type="linear" slope="0" intercept="0"/>
				<feFuncB type="linear" slope="0" intercept="0"/>
				<feFuncA type="linear" slope="10000" intercept="0"/>
			</feComponentTransfer>
			<feComponentTransfer in="componentTransfer3158657202" result="componentTransfer4400149026">
				<feFuncA type="linear" slope="0.15000001" intercept="0"/>
			</feComponentTransfer>
			<feOffset dx="0" dy="8" in="componentTransfer4400149026" result="offset1208256158"/>
			<feGaussianBlur stdDeviation="12" in="offset1208256158" result="gaussianBlur5889000664"/>
			<feMerge>
				<feMergeNode in="gaussianBlur5889000664"/>
				<feMergeNode in="SourceGraphic"/>
			</feMerge>
		</filter>
	</defs>
	<g filter="url(#filter9356025364)">
		<defs>
			<clipPath id="clipPath2211594527">
				<path transform="matrix(1 0 0 1 78.1094 65.1371)" d="M0 0L96 0L96 96L0 96L0 0Z" fill-rule="nonzero"/>
			</clipPath>
		</defs>
		<g clip-path="url(#clipPath2211594527)">
			<defs>
				<clipPath id="clipPath6965923675">
					<path transform="matrix(1 0 0 1 78.1094 65.1371)" d="M0 0L96 0L96 96L0 96L0 0Z" fill-rule="nonzero"/>
				</clipPath>
			</defs>
			<g clip-path="url(#clipPath6965923675)">
				<path transform="matrix(1 0 0 1 141.109 128.137)" d="M1.5 0C0.671573 0 0 0.671573 0 1.5L0 13.5C0 14.3284 0.671573 15 1.5 15L13.5 15C14.3284 15 15 14.3284 15 13.5L15 1.5C15 0.671573 14.3284 0 13.5 0L1.5 0Z" fill-rule="nonzero" fill="rgb(255, 255, 255)"/>
				<path transform="matrix(1 0 0 1 129.109 116.137)" d="M1.5 0C0.671573 0 0 0.671573 0 1.5L0 10.5C0 11.3284 0.671573 12 1.5 12L10.5 12C11.3284 12 12 11.3284 12 10.5L12 1.5C12 0.671573 11.3284 0 10.5 0L1.5 0Z" fill-rule="nonzero" fill="rgb(255, 255, 255)"/>
				<path transform="matrix(1 0 0 1 156.109 143.137)" d="M1.5 0C0.671573 0 0 0.671573 0 1.5L0 10.5C0 11.3284 0.671573 12 1.5 12L10.5 12C11.3284 12 12 11.3284 12 10.5L12 1.5C12 0.671573 11.3284 0 10.5 0L1.5 0Z" fill-rule="nonzero" fill="rgb(255, 255, 255)"/>
				<path transform="matrix(1 0 0 1 159.109 116.137)" d="M1.5 0C0.671573 0 0 0.671573 0 1.5L0 7.5C0 8.32843 0.671573 9 1.5 9L7.5 9C8.32843 9 9 8.32843 9 7.5L9 1.5C9 0.671573 8.32843 0 7.5 0L1.5 0Z" fill-rule="nonzero" fill="rgb(255, 255, 255)"/>
				<path transform="matrix(1 0 0 1 129.109 146.137)" d="M1.5 0C0.671573 0 0 0.671573 0 1.5L0 7.5C0 8.32843 0.671573 9 1.5 9L7.5 9C8.32843 9 9 8.32843 9 7.5L9 1.5C9 0.671573 8.32843 0 7.5 0L1.5 0Z" fill-rule="nonzero" fill="rgb(255, 255, 255)"/>
				<path transform="matrix(1 0 0 1 84.1094 71.1371)" d="M78 0L51 0C49.3431 0 47.9289 0.585786 46.7574 1.75736C45.5858 2.92893 45 4.34315 45 6L45 33C45 34.6569 45.5858 36.0711 46.7574 37.2426C47.9289 38.4142 49.3431 39 51 39L78 39C79.6569 39 81.0711 38.4142 82.2426 37.2426C83.4142 36.0711 84 34.6569 84 33L84 6C84 4.34315 83.4142 2.92893 82.2426 1.75736C81.0711 0.585786 79.6569 0 78 0ZM72 25.5C72 25.9142 71.8535 26.2678 71.5607 26.5607C71.2678 26.8535 70.9142 27 70.5 27L58.5 27C58.0858 27 57.7322 26.8535 57.4393 26.5607C57.1464 26.2678 57 25.9142 57 25.5L57 13.5C57 13.0858 57.1464 12.7322 57.4393 12.4393C57.7322 12.1464 58.0858 12 58.5 12L70.5 12C70.9142 12 71.2678 12.1464 71.5607 12.4393C71.8535 12.7322 72 13.0858 72 13.5L72 25.5ZM33 0L6 0C4.34315 0 2.92893 0.585786 1.75736 1.75736C0.585786 2.92893 0 4.34315 0 6L0 33C-2.38419e-07 34.6569 0.585786 36.0711 1.75736 37.2426C2.92893 38.4142 4.34315 39 6 39L33 39C34.6569 39 36.0711 38.4142 37.2426 37.2426C38.4142 36.0711 39 34.6569 39 33L39 6C39 4.34315 38.4142 2.92893 37.2426 1.75736C36.0711 0.585786 34.6569 0 33 0ZM27 25.5C27 25.9142 26.8535 26.2678 26.5607 26.5607C26.2678 26.8535 25.9142 27 25.5 27L13.5 27C13.0858 27 12.7322 26.8535 12.4393 26.5607C12.1464 26.2678 12 25.9142 12 25.5L12 13.5C12 13.0858 12.1464 12.7322 12.4393 12.4393C12.7322 12.1464 13.0858 12 13.5 12L25.5 12C25.9142 12 26.2678 12.1464 26.5607 12.4393C26.8535 12.7322 27 13.0858 27 13.5L27 25.5ZM33 45L6 45C4.34315 45 2.92893 45.5858 1.75736 46.7574C0.585786 47.9289 0 49.3431 0 51L0 78C-2.38419e-07 79.6569 0.585786 81.0711 1.75736 82.2426C2.92893 83.4142 4.34315 84 6 84L33 84C34.6569 84 36.0711 83.4142 37.2426 82.2426C38.4142 81.0711 39 79.6569 39 78L39 51C39 49.3431 38.4142 47.9289 37.2426 46.7574C36.0711 45.5858 34.6569 45 33 45ZM27 70.5C27 70.9142 26.8535 71.2678 26.5607 71.5607C26.2678 71.8535 25.9142 72 25.5 72L13.5 72C13.0858 72 12.7322 71.8535 12.4393 71.5607C12.1464 71.2678 12 70.9142 12 70.5L12 58.5C12 58.0858 12.1464 57.7322 12.4393 57.4393C12.7322 57.1464 13.0858 57 13.5 57L25.5 57C25.9142 57 26.2678 57.1464 26.5607 57.4393C26.8535 57.7322 27 58.0858 27 58.5L27 70.5Z" fill-rule="nonzero" fill="rgb(255, 255, 255)"/>
			</g>
		</g>
	</g>
	<path transform="matrix(1 0 0 1 54.2969 235.137)" d="M9.99023 27.1558L14.2529 27.1558L16.062 29.4702L18.4424 32.1948L22.0972 36.7065L17.3291 36.7065L14.7729 33.645L13.2495 31.4697L9.99023 27.1558ZM22.2437 24.0942Q22.2437 27.6978 20.8594 30.2026Q19.4824 32.7002 17.1167 34.0039Q14.7583 35.3003 11.8286 35.3003Q8.88428 35.3003 6.52588 33.9893Q4.1748 32.6782 2.79053 30.1807Q1.41357 27.6758 1.41357 24.0942Q1.41357 20.4834 2.79053 17.9858Q4.1748 15.481 6.52588 14.1846Q8.88428 12.8809 11.8286 12.8809Q14.7583 12.8809 17.1167 14.1846Q19.4824 15.481 20.8594 17.9858Q22.2437 20.4834 22.2437 24.0942ZM16.8604 24.0942Q16.8604 21.9556 16.2524 20.4907Q15.6519 19.0186 14.5239 18.2642Q13.4033 17.5024 11.8286 17.5024Q10.2539 17.5024 9.12598 18.2642Q8.00537 19.0186 7.40479 20.4907Q6.8042 21.9556 6.8042 24.0942Q6.8042 26.2256 7.40479 27.6978Q8.00537 29.1626 9.12598 29.9243Q10.2539 30.6787 11.8286 30.6787Q13.4033 30.6787 14.5239 29.9243Q15.6519 29.1626 16.2524 27.6978Q16.8604 26.2256 16.8604 24.0942Z" fill-rule="nonzero" fill="rgb(255, 255, 255)"/>
	<path transform="matrix(1 0 0 1 54.2969 235.137)" d="M25.3486 35L25.3486 13.1812L34.3574 13.1812Q36.8111 13.1812 38.5908 14.0674Q40.3779 14.9463 41.3447 16.5796Q42.3189 18.2056 42.3189 20.4541Q42.3189 22.71 41.3301 24.2993Q40.3413 25.8813 38.5176 26.709Q36.6939 27.5366 34.1963 27.5366L28.4981 27.5366L28.4981 23.3765L33.2222 23.3765Q34.4087 23.3765 35.2144 23.0688Q36.02 22.7539 36.4375 22.1094Q36.855 21.4575 36.855 20.4541Q36.855 19.436 36.4375 18.7695Q36.02 18.103 35.207 17.7734Q34.4014 17.4365 33.2149 17.4365L30.6148 17.4365L30.6148 35L25.3486 35ZM37.6314 25.0317L43.0659 35L37.3018 35L31.9844 25.0317L37.6314 25.0317Z" fill-rule="nonzero" fill="rgb(255, 255, 255)"/>
	<path transform="matrix(1 0 0 1 54.2969 235.137)" d="M65.0115 21.0913L59.6794 21.0913Q59.5769 20.2637 59.24 19.6118Q58.9104 18.9526 58.3684 18.4839Q57.8264 18.0078 57.0867 17.7588Q56.3469 17.5024 55.446 17.5024Q53.8567 17.5024 52.7141 18.2861Q51.5715 19.0625 50.9636 20.5347Q50.3557 22.0068 50.3557 24.0942Q50.3557 26.2622 50.9709 27.7344Q51.5935 29.1992 52.7287 29.939Q53.8713 30.6787 55.4167 30.6787Q56.2883 30.6787 57.0061 30.4517Q57.7312 30.2246 58.2805 29.7925Q58.8298 29.3604 59.1887 28.7378Q59.5476 28.1152 59.6794 27.3315L65.0115 27.3608Q64.865 28.8037 64.1692 30.2173Q63.4807 31.6235 62.2576 32.7808Q61.0417 33.9307 59.2986 34.6191Q57.5627 35.3003 55.3142 35.3003Q52.3479 35.3003 50.0115 33.9966Q47.675 32.6929 46.3201 30.188Q44.9651 27.6758 44.9651 24.0942Q44.9651 20.4834 46.3347 17.9858Q47.7117 15.481 50.0554 14.1846Q52.3992 12.8809 55.3142 12.8809Q57.2991 12.8809 58.9763 13.4302Q60.6535 13.9795 61.9353 15.0269Q63.2243 16.0742 64.0154 17.605Q64.8137 19.1284 65.0115 21.0913Z" fill-rule="nonzero" fill="rgb(255, 255, 255)"/>
	<path transform="matrix(1 0 0 1 54.2969 235.137)" d="M68.0159 35L68.0159 18.6377L73.0696 18.6377L73.0696 21.6187L73.2381 21.6187Q73.6848 19.9927 74.6956 19.209Q75.7137 18.418 77.054 18.418Q77.4202 18.418 77.8011 18.4692Q78.1892 18.5132 78.5115 18.6011L78.5115 23.1274Q78.138 23.0029 77.5374 22.9297Q76.9368 22.8564 76.468 22.8564Q75.5379 22.8564 74.7981 23.2666Q74.0657 23.6768 73.6409 24.4092Q73.2234 25.1416 73.2234 26.1084L73.2234 35L68.0159 35Z" fill-rule="nonzero" fill="rgb(255, 255, 255)"/>
	<path transform="matrix(1 0 0 1 54.2969 235.137)" d="M87.4452 35.3076Q84.8744 35.3076 83.014 34.2969Q81.161 33.2788 80.1649 31.3892Q79.1688 29.4922 79.1688 26.8774Q79.1688 24.3433 80.1649 22.4463Q81.1683 20.542 82.992 19.4873Q84.8158 18.4253 87.2914 18.4253Q89.0272 18.4253 90.4774 18.9746Q91.9276 19.5166 92.9823 20.5786Q94.0443 21.6406 94.6229 23.2007Q95.2088 24.7607 95.2088 26.7749L95.2088 28.0786L80.9925 28.0786L80.9925 25.0537L90.3675 25.0537Q90.3602 24.2114 89.972 23.5669Q89.5838 22.9224 88.9173 22.5562Q88.2508 22.1826 87.3939 22.1826Q86.5223 22.1826 85.8265 22.5781Q85.1307 22.9663 84.7279 23.6328Q84.325 24.292 84.3031 25.127L84.3031 28.2178Q84.3031 29.2139 84.6986 29.9683Q85.0941 30.7227 85.8119 31.1401Q86.537 31.5503 87.5477 31.5503Q88.2289 31.5503 88.7928 31.3599Q89.3568 31.1621 89.7596 30.7886Q90.1698 30.415 90.3748 29.8804L95.1576 30.0122Q94.8573 31.6235 93.8465 32.8174Q92.8431 34.0039 91.2171 34.6558Q89.5912 35.3076 87.4452 35.3076Z" fill-rule="nonzero" fill="rgb(255, 255, 255)"/>
	<path transform="matrix(1 0 0 1 54.2969 235.137)" d="M102.495 35.2783Q100.935 35.2783 99.7194 34.751Q98.5109 34.2163 97.8151 33.147Q97.1193 32.0776 97.1193 30.459Q97.1193 29.104 97.5953 28.1665Q98.0714 27.2217 98.9137 26.6357Q99.756 26.0498 100.855 25.7495Q101.953 25.4419 103.198 25.332Q104.597 25.2148 105.447 25.0684Q106.304 24.9219 106.685 24.6509Q107.073 24.3726 107.073 23.8745L107.073 23.8232Q107.073 23.0029 106.509 22.5562Q105.945 22.1021 104.985 22.1021Q103.953 22.1021 103.323 22.5562Q102.7 23.0103 102.532 23.7939L97.7272 23.6255Q97.9396 22.1313 98.8258 20.9521Q99.7194 19.7729 101.279 19.0991Q102.839 18.4253 105.037 18.4253Q106.604 18.4253 107.922 18.7915Q109.248 19.1504 110.222 19.8535Q111.196 20.5493 111.738 21.5674Q112.28 22.5781 112.28 23.8745L112.28 35L107.38 35L107.38 32.7148L107.256 32.7148Q106.809 33.5571 106.128 34.1284Q105.454 34.6997 104.546 34.9927Q103.638 35.2783 102.495 35.2783ZM104.107 31.8652Q104.942 31.8652 105.623 31.5283Q106.304 31.1841 106.707 30.5835Q107.109 29.9829 107.109 29.1772L107.109 27.6245Q106.89 27.7417 106.568 27.8442Q106.253 27.9395 105.879 28.0273Q105.505 28.1079 105.117 28.1738Q104.729 28.2397 104.363 28.291Q103.623 28.4009 103.103 28.6499Q102.59 28.8989 102.319 29.2871Q102.056 29.6753 102.056 30.21Q102.056 31.0156 102.634 31.4404Q103.213 31.8652 104.107 31.8652Z" fill-rule="nonzero" fill="rgb(255, 255, 255)"/>
	<path transform="matrix(1 0 0 1 54.2969 235.137)" d="M124.684 18.6377L124.684 22.4683L114.365 22.4683L114.365 18.6377L124.684 18.6377ZM116.525 14.7192L121.733 14.7192L121.733 29.8511Q121.733 30.3345 121.887 30.6274Q122.048 30.9131 122.341 31.0376Q122.641 31.1621 123.058 31.1621Q123.351 31.1621 123.688 31.1035Q124.033 31.0449 124.201 31.001L124.985 34.7583Q124.619 34.8755 123.937 35.0293Q123.264 35.1904 122.326 35.2271Q120.488 35.3149 119.184 34.8022Q117.888 34.2896 117.199 33.1909Q116.511 32.0923 116.525 30.4297L116.525 14.7192Z" fill-rule="nonzero" fill="rgb(255, 255, 255)"/>
	<path transform="matrix(1 0 0 1 54.2969 235.137)" d="M134.832 35.3076Q132.261 35.3076 130.401 34.2969Q128.548 33.2788 127.552 31.3892Q126.556 29.4922 126.556 26.8774Q126.556 24.3433 127.552 22.4463Q128.555 20.542 130.379 19.4873Q132.202 18.4253 134.678 18.4253Q136.414 18.4253 137.864 18.9746Q139.314 19.5166 140.369 20.5786Q141.431 21.6406 142.01 23.2007Q142.596 24.7607 142.596 26.7749L142.596 28.0786L128.379 28.0786L128.379 25.0537L137.754 25.0537Q137.747 24.2114 137.359 23.5669Q136.971 22.9224 136.304 22.5562Q135.638 22.1826 134.781 22.1826Q133.909 22.1826 133.213 22.5781Q132.517 22.9663 132.115 23.6328Q131.712 24.292 131.69 25.127L131.69 28.2178Q131.69 29.2139 132.085 29.9683Q132.481 30.7227 133.199 31.1401Q133.924 31.5503 134.934 31.5503Q135.616 31.5503 136.18 31.3599Q136.744 31.1621 137.146 30.7886Q137.557 30.415 137.762 29.8804L142.544 30.0122Q142.244 31.6235 141.233 32.8174Q140.23 34.0039 138.604 34.6558Q136.978 35.3076 134.832 35.3076Z" fill-rule="nonzero" fill="rgb(255, 255, 255)"/>
	<path transform="matrix(1 0 0 1 0 286.137)" d="M10.2964 15.0439Q10.1118 14.4639 9.7998 14.0024Q9.49219 13.5366 9.06152 13.207Q8.63525 12.8774 8.09033 12.7061Q7.54541 12.5347 6.89502 12.5347Q5.7832 12.5347 4.89551 13.1016Q4.00781 13.6685 3.48926 14.7671Q2.9751 15.8613 2.9751 17.4478Q2.9751 19.0386 3.49365 20.1416Q4.01221 21.2402 4.91309 21.8071Q5.81396 22.374 6.96973 22.374Q8.0332 22.374 8.82861 21.9434Q9.62402 21.5083 10.0635 20.7129Q10.5029 19.9175 10.5029 18.8364L11.0127 18.9331L7.26855 18.9331L7.26855 17.3027L12.4146 17.3027L12.4146 18.7881Q12.4146 20.4404 11.7114 21.6533Q11.0127 22.8618 9.78223 23.521Q8.55615 24.1802 6.96533 24.1802Q5.18994 24.1802 3.84961 23.3628Q2.51367 22.5454 1.7666 21.0381Q1.01953 19.5308 1.01953 17.4609Q1.01953 15.8921 1.4502 14.6484Q1.88525 13.4004 2.67627 12.5303Q3.46729 11.6558 4.53516 11.1943Q5.60742 10.7285 6.87744 10.7285Q7.94092 10.7285 8.85938 11.0449Q9.77783 11.3569 10.4941 11.9326Q11.2148 12.5039 11.6851 13.2949Q12.1597 14.0859 12.3223 15.0439L10.2964 15.0439Z" fill-rule="nonzero" fill="rgb(255, 255, 255)" fill-opacity="0.85"/>
	<path transform="matrix(1 0 0 1 0 286.137)" d="M19.4503 24.1978Q18.0001 24.1978 16.9498 23.5737Q15.9039 22.9497 15.337 21.8159Q14.7745 20.6821 14.7745 19.1572Q14.7745 17.6455 15.337 16.4985Q15.9039 15.3472 16.9234 14.7012Q17.9429 14.0552 19.3096 14.0552Q20.1446 14.0552 20.9224 14.3276Q21.7047 14.6001 22.3199 15.189Q22.9395 15.7778 23.2999 16.7183Q23.6602 17.6543 23.6602 18.9902L23.6602 19.6626L15.8555 19.6626L15.8555 18.23L21.7838 18.23Q21.7838 17.4829 21.4761 16.8984Q21.1729 16.3096 20.6192 15.9712Q20.0699 15.6328 19.3272 15.6328Q18.5186 15.6328 17.921 16.0283Q17.3277 16.4194 17.0025 17.0522Q16.6773 17.6807 16.6773 18.4146L16.6773 19.5308Q16.6773 20.5151 17.0245 21.2051Q17.376 21.895 18.0001 22.2598Q18.6285 22.6201 19.4634 22.6201Q20.0128 22.6201 20.4566 22.4663Q20.9049 22.3081 21.23 21.9961Q21.5552 21.6841 21.731 21.2183L23.5372 21.5435Q23.3218 22.3433 22.7637 22.9409Q22.2056 23.5386 21.3619 23.8682Q20.5181 24.1978 19.4503 24.1978Z" fill-rule="nonzero" fill="rgb(255, 255, 255)" fill-opacity="0.85"/>
	<path transform="matrix(1 0 0 1 0 286.137)" d="M28.1479 18.1685L28.1479 24L26.2363 24L26.2363 14.1826L28.0732 14.1826L28.0732 15.7822L28.1963 15.7822Q28.5346 14.9956 29.2597 14.5254Q29.9848 14.0552 31.0879 14.0552Q32.0942 14.0552 32.8457 14.4771Q33.6015 14.8945 34.019 15.7207Q34.4365 16.5425 34.4321 17.7554L34.4321 24L32.5205 24L32.5205 17.9883Q32.5205 16.916 31.9668 16.314Q31.4131 15.7119 30.4419 15.7119Q29.7739 15.7119 29.2553 16.002Q28.7412 16.2876 28.4468 16.8369Q28.1523 17.3862 28.1479 18.1685Z" fill-rule="nonzero" fill="rgb(255, 255, 255)" fill-opacity="0.85"/>
	<path transform="matrix(1 0 0 1 0 286.137)" d="M41.674 24.1978Q40.2238 24.1978 39.1735 23.5737Q38.1276 22.9497 37.5607 21.8159Q36.9982 20.6821 36.9982 19.1572Q36.9982 17.6455 37.5607 16.4985Q38.1276 15.3472 39.1471 14.7012Q40.1666 14.0552 41.5333 14.0552Q42.3683 14.0552 43.1461 14.3276Q43.9284 14.6001 44.5436 15.189Q45.1632 15.7778 45.5236 16.7183Q45.8839 17.6543 45.8839 18.9902L45.8839 19.6626L38.0792 19.6626L38.0792 18.23L44.0075 18.23Q44.0075 17.4829 43.6999 16.8984Q43.3966 16.3096 42.8429 15.9712Q42.2936 15.6328 41.5509 15.6328Q40.7423 15.6328 40.1447 16.0283Q39.5514 16.4194 39.2262 17.0522Q38.901 17.6807 38.901 18.4146L38.901 19.5308Q38.901 20.5151 39.2482 21.2051Q39.5998 21.895 40.2238 22.2598Q40.8522 22.6201 41.6872 22.6201Q42.2365 22.6201 42.6803 22.4663Q43.1286 22.3081 43.4538 21.9961Q43.779 21.6841 43.9547 21.2183L45.7609 21.5435Q45.5456 22.3433 44.9874 22.9409Q44.4293 23.5386 43.5856 23.8682Q42.7418 24.1978 41.674 24.1978Z" fill-rule="nonzero" fill="rgb(255, 255, 255)" fill-opacity="0.85"/>
	<path transform="matrix(1 0 0 1 0 286.137)" d="M48.46 24L48.46 14.1826L50.3101 14.1826L50.3101 15.7427L50.4156 15.7427Q50.6837 14.9517 51.3604 14.4946Q52.0416 14.0332 52.9029 14.0332Q53.0831 14.0332 53.3248 14.0464Q53.5709 14.0596 53.7159 14.0815L53.7159 15.9097Q53.6016 15.8789 53.3072 15.835Q53.0171 15.791 52.7183 15.791Q52.046 15.791 51.5142 16.0767Q50.9825 16.3623 50.6749 16.8633Q50.3716 17.3643 50.3716 18.0059L50.3716 24L48.46 24Z" fill-rule="nonzero" fill="rgb(255, 255, 255)" fill-opacity="0.85"/>
	<path transform="matrix(1 0 0 1 0 286.137)" d="M58.595 24.2153Q57.6589 24.2153 56.9075 23.8682Q56.156 23.521 55.7121 22.8574Q55.2727 22.1895 55.2727 21.2271Q55.2727 20.3921 55.5935 19.856Q55.9143 19.3198 56.4592 19.0078Q57.0041 18.6914 57.6721 18.5332Q58.3445 18.375 59.0432 18.2915Q59.9221 18.1904 60.4714 18.1245Q61.0207 18.0542 61.2712 17.9048Q61.5217 17.751 61.5217 17.4038L61.5217 17.3555Q61.5217 16.5249 61.0515 16.0635Q60.5813 15.6021 59.6584 15.6021Q58.6916 15.6021 58.1379 16.0283Q57.5842 16.4502 57.3689 16.9688L55.5759 16.5601Q55.8967 15.6636 56.5119 15.1143Q57.1272 14.5605 57.9314 14.3101Q58.74 14.0552 59.6277 14.0552Q60.2165 14.0552 60.8757 14.1958Q61.5393 14.332 62.1194 14.6968Q62.6994 15.0571 63.0686 15.7339Q63.4377 16.4062 63.4377 17.4785L63.4377 24L61.5701 24L61.5701 22.6597L61.491 22.6597Q61.3108 23.0244 60.9416 23.3848Q60.5725 23.7451 59.988 23.9824Q59.4079 24.2153 58.595 24.2153ZM59.008 22.686Q59.8035 22.686 60.366 22.374Q60.9328 22.0576 61.2273 21.5522Q61.5261 21.0425 61.5261 20.4624L61.5261 19.1924Q61.425 19.2979 61.135 19.3813Q60.845 19.4648 60.4714 19.5308Q60.1023 19.5923 59.7507 19.6406Q59.3992 19.6846 59.1618 19.7153Q58.6081 19.79 58.1467 19.9526Q57.6897 20.1152 57.4172 20.4272Q57.1448 20.7393 57.1448 21.249Q57.1448 21.9609 57.6677 22.3257Q58.1951 22.686 59.008 22.686Z" fill-rule="nonzero" fill="rgb(255, 255, 255)" fill-opacity="0.85"/>
	<path transform="matrix(1 0 0 1 0 286.137)" d="M71.0184 14.1826L71.0184 15.7163L65.6527 15.7163L65.6527 14.1826L71.0184 14.1826ZM67.0897 11.8315L69.0013 11.8315L69.0013 21.1172Q69.0013 21.6709 69.1639 21.9521Q69.3309 22.2334 69.599 22.3301Q69.867 22.4268 70.179 22.4268Q70.4119 22.4268 70.5789 22.396Q70.7503 22.3652 70.847 22.3477L71.1986 23.9253Q71.0272 23.9868 70.7196 24.0527Q70.4119 24.123 69.9549 24.1318Q69.1991 24.145 68.5443 23.8638Q67.8939 23.5781 67.4896 22.9937Q67.0897 22.4048 67.0897 21.5127L67.0897 11.8315Z" fill-rule="nonzero" fill="rgb(255, 255, 255)" fill-opacity="0.85"/>
	<path transform="matrix(1 0 0 1 0 286.137)" d="M77.707 24.1978Q76.2568 24.1978 75.2065 23.5737Q74.1606 22.9497 73.5937 21.8159Q73.0312 20.6821 73.0312 19.1572Q73.0312 17.6455 73.5937 16.4985Q74.1606 15.3472 75.1801 14.7012Q76.1997 14.0552 77.5664 14.0552Q78.4013 14.0552 79.1791 14.3276Q79.9614 14.6001 80.5766 15.189Q81.1962 15.7778 81.5566 16.7183Q81.9169 17.6543 81.9169 18.9902L81.9169 19.6626L74.1123 19.6626L74.1123 18.23L80.0405 18.23Q80.0405 17.4829 79.7329 16.8984Q79.4296 16.3096 78.8759 15.9712Q78.3266 15.6328 77.5839 15.6328Q76.7753 15.6328 76.1777 16.0283Q75.5844 16.4194 75.2592 17.0522Q74.934 17.6807 74.934 18.4146L74.934 19.5308Q74.934 20.5151 75.2812 21.2051Q75.6328 21.895 76.2568 22.2598Q76.8852 22.6201 77.7202 22.6201Q78.2695 22.6201 78.7133 22.4663Q79.1616 22.3081 79.4868 21.9961Q79.812 21.6841 79.9877 21.2183L81.7939 21.5435Q81.5786 22.3433 81.0205 22.9409Q80.4623 23.5386 79.6186 23.8682Q78.7748 24.1978 77.707 24.1978Z" fill-rule="nonzero" fill="rgb(255, 255, 255)" fill-opacity="0.85"/>
	<path transform="matrix(1 0 0 1 0 286.137)" d="M86.9803 22.2114L86.888 22.9058Q86.787 23.6748 86.5628 24.5054Q86.3387 25.3403 86.097 26.0566Q85.8553 26.7773 85.7015 27.1948L84.3436 27.1948Q84.4315 26.7949 84.5765 26.1226Q84.7215 25.4546 84.8622 24.6196Q85.0028 23.7891 85.0775 22.9277L85.139 22.2114L86.9803 22.2114Z" fill-rule="nonzero" fill="rgb(255, 255, 255)" fill-opacity="0.85"/>
	<path transform="matrix(1 0 0 1 0 286.137)" d="M106.16 15.1626L104.17 15.1626Q104.051 14.5254 103.739 14.042Q103.427 13.5542 102.974 13.2158Q102.522 12.8774 101.959 12.7061Q101.401 12.5347 100.777 12.5347Q99.6432 12.5347 98.7511 13.1016Q97.859 13.6685 97.3405 14.7671Q96.8263 15.8657 96.8263 17.4565Q96.8263 19.0562 97.3449 20.1548Q97.8634 21.249 98.7555 21.8115Q99.6476 22.374 100.768 22.374Q101.392 22.374 101.95 22.207Q102.508 22.0356 102.961 21.7061Q103.414 21.3765 103.73 20.8931Q104.047 20.4097 104.17 19.7812L106.16 19.7856Q106.002 20.7568 105.545 21.561Q105.088 22.3652 104.376 22.9541Q103.664 23.543 102.75 23.8638Q101.836 24.1802 100.755 24.1802Q99.0543 24.1802 97.7228 23.3716Q96.3956 22.5586 95.631 21.0513Q94.8707 19.5439 94.8707 17.4565Q94.8707 15.3604 95.6354 13.853Q96.4044 12.3457 97.7316 11.5371Q99.0631 10.7285 100.755 10.7285Q101.797 10.7285 102.702 11.0273Q103.607 11.3262 104.328 11.8975Q105.048 12.4688 105.523 13.2905Q105.998 14.1123 106.16 15.1626Z" fill-rule="nonzero" fill="rgb(255, 255, 255)" fill-opacity="0.85"/>
	<path transform="matrix(1 0 0 1 0 286.137)" d="M115.045 19.9307L115.045 14.1826L116.957 14.1826L116.957 24L115.08 24L115.08 22.2949L114.979 22.2949Q114.641 23.0815 113.898 23.6045Q113.155 24.1274 112.043 24.1274Q111.103 24.1274 110.374 23.71Q109.648 23.2881 109.235 22.4663Q108.822 21.6445 108.822 20.4272L108.822 14.1826L110.734 14.1826L110.734 20.1943Q110.738 21.2007 111.292 21.7939Q111.85 22.3872 112.733 22.3872Q113.274 22.3872 113.806 22.1235Q114.337 21.8555 114.693 21.3105Q115.049 20.7612 115.045 19.9307Z" fill-rule="nonzero" fill="rgb(255, 255, 255)" fill-opacity="0.85"/>
	<path transform="matrix(1 0 0 1 0 286.137)" d="M127.333 16.582L125.597 16.8853Q125.492 16.5557 125.255 16.2568Q125.022 15.9536 124.626 15.7603Q124.231 15.5669 123.633 15.5669Q122.825 15.5669 122.28 15.9316Q121.735 16.292 121.739 16.8633Q121.735 17.3555 122.099 17.6543Q122.469 17.9487 123.277 18.1465L124.842 18.5024Q126.195 18.8145 126.859 19.4692Q127.522 20.1196 127.527 21.1611Q127.522 22.0444 127.013 22.7344Q126.507 23.4199 125.602 23.811Q124.701 24.1978 123.51 24.1978Q121.858 24.1978 120.816 23.4946Q119.779 22.7871 119.537 21.4819L121.383 21.1963Q121.563 21.9258 122.099 22.2949Q122.636 22.6597 123.497 22.6597Q124.437 22.6597 125 22.2686Q125.562 21.873 125.562 21.3062Q125.562 20.8403 125.22 20.5283Q124.881 20.2163 124.169 20.0581L122.513 19.689Q121.137 19.3813 120.482 18.6958Q119.827 18.0059 119.832 16.9644Q119.827 16.0942 120.311 15.4395Q120.799 14.7847 121.656 14.4199Q122.513 14.0552 123.62 14.0552Q125.211 14.0552 126.125 14.7451Q127.039 15.4307 127.333 16.582Z" fill-rule="nonzero" fill="rgb(255, 255, 255)" fill-opacity="0.85"/>
	<path transform="matrix(1 0 0 1 0 286.137)" d="M134.656 14.1826L134.656 15.7163L129.29 15.7163L129.29 14.1826L134.656 14.1826ZM130.727 11.8315L132.639 11.8315L132.639 21.1172Q132.639 21.6709 132.801 21.9521Q132.968 22.2334 133.236 22.3301Q133.505 22.4268 133.817 22.4268Q134.049 22.4268 134.216 22.396Q134.388 22.3652 134.485 22.3477L134.836 23.9253Q134.665 23.9868 134.357 24.0527Q134.049 24.123 133.592 24.1318Q132.837 24.145 132.182 23.8638Q131.531 23.5781 131.127 22.9937Q130.727 22.4048 130.727 21.5127L130.727 11.8315Z" fill-rule="nonzero" fill="rgb(255, 255, 255)" fill-opacity="0.85"/>
	<path transform="matrix(1 0 0 1 0 286.137)" d="M141.243 24.1978Q139.864 24.1978 138.835 23.5649Q137.807 22.9321 137.236 21.7939Q136.669 20.6558 136.669 19.1353Q136.669 17.606 137.236 16.4634Q137.807 15.3208 138.835 14.688Q139.864 14.0552 141.243 14.0552Q142.628 14.0552 143.656 14.688Q144.684 15.3208 145.251 16.4634Q145.823 17.606 145.823 19.1353Q145.823 20.6558 145.251 21.7939Q144.684 22.9321 143.656 23.5649Q142.628 24.1978 141.243 24.1978ZM141.252 22.5938Q142.149 22.5938 142.733 22.1191Q143.322 21.6445 143.608 20.8579Q143.893 20.0713 143.893 19.1309Q143.893 18.1904 143.608 17.3994Q143.322 16.6084 142.733 16.1294Q142.149 15.6504 141.252 15.6504Q140.347 15.6504 139.758 16.1294Q139.169 16.6084 138.884 17.3994Q138.598 18.1904 138.598 19.1309Q138.598 20.0713 138.884 20.8579Q139.169 21.6445 139.758 22.1191Q140.347 22.5938 141.252 22.5938Z" fill-rule="nonzero" fill="rgb(255, 255, 255)" fill-opacity="0.85"/>
	<path transform="matrix(1 0 0 1 0 286.137)" d="M148.399 24L148.399 14.1826L150.236 14.1826L150.236 15.7822L150.359 15.7822Q150.667 14.9692 151.361 14.5122Q152.055 14.0552 153.026 14.0552Q154.011 14.0552 154.679 14.5166Q155.347 14.9736 155.672 15.7822L155.773 15.7822Q156.125 14.9956 156.889 14.5254Q157.658 14.0552 158.717 14.0552Q160.053 14.0552 160.897 14.8945Q161.745 15.7295 161.745 17.417L161.745 24L159.834 24L159.834 17.5972Q159.834 16.5996 159.293 16.1558Q158.753 15.7075 157.997 15.7075Q157.061 15.7075 156.542 16.2788Q156.023 16.8501 156.023 17.7422L156.023 24L154.121 24L154.121 17.4741Q154.121 16.6743 153.62 16.1909Q153.123 15.7075 152.328 15.7075Q151.783 15.7075 151.321 15.9932Q150.864 16.2744 150.587 16.7798Q150.311 17.2808 150.311 17.9443L150.311 24L148.399 24Z" fill-rule="nonzero" fill="rgb(255, 255, 255)" fill-opacity="0.85"/>
	<path transform="matrix(1 0 0 1 0 286.137)" d="M164.752 24L164.752 14.1826L166.664 14.1826L166.664 24L164.752 24ZM165.719 12.6665Q165.223 12.6665 164.867 12.3325Q164.511 11.9985 164.511 11.5283Q164.511 11.0581 164.867 10.7241Q165.223 10.3857 165.719 10.3857Q166.216 10.3857 166.572 10.7241Q166.928 11.0581 166.928 11.5283Q166.928 11.9985 166.572 12.3325Q166.216 12.6665 165.719 12.6665Z" fill-rule="nonzero" fill="rgb(255, 255, 255)" fill-opacity="0.85"/>
	<path transform="matrix(1 0 0 1 0 286.137)" d="M169.481 24L169.481 22.6904L174.798 15.936L174.798 15.8438L169.652 15.8438L169.652 14.1826L177.185 14.1826L177.185 15.5713L172.065 22.2466L172.065 22.3389L177.36 22.3389L177.36 24L169.481 24Z" fill-rule="nonzero" fill="rgb(255, 255, 255)" fill-opacity="0.85"/>
	<path transform="matrix(1 0 0 1 0 286.137)" d="M184.015 24.1978Q182.565 24.1978 181.514 23.5737Q180.469 22.9497 179.902 21.8159Q179.339 20.6821 179.339 19.1572Q179.339 17.6455 179.902 16.4985Q180.469 15.3472 181.488 14.7012Q182.508 14.0552 183.874 14.0552Q184.709 14.0552 185.487 14.3276Q186.269 14.6001 186.885 15.189Q187.504 15.7778 187.865 16.7183Q188.225 17.6543 188.225 18.9902L188.225 19.6626L180.42 19.6626L180.42 18.23L186.348 18.23Q186.348 17.4829 186.041 16.8984Q185.738 16.3096 185.184 15.9712Q184.635 15.6328 183.892 15.6328Q183.083 15.6328 182.486 16.0283Q181.892 16.4194 181.567 17.0522Q181.242 17.6807 181.242 18.4146L181.242 19.5308Q181.242 20.5151 181.589 21.2051Q181.941 21.895 182.565 22.2598Q183.193 22.6201 184.028 22.6201Q184.577 22.6201 185.021 22.4663Q185.47 22.3081 185.795 21.9961Q186.12 21.6841 186.296 21.2183L188.102 21.5435Q187.887 22.3433 187.328 22.9409Q186.77 23.5386 185.927 23.8682Q185.083 24.1978 184.015 24.1978Z" fill-rule="nonzero" fill="rgb(255, 255, 255)" fill-opacity="0.85"/>
	<path transform="matrix(1 0 0 1 0 286.137)" d="M193.288 22.2114L193.196 22.9058Q193.095 23.6748 192.871 24.5054Q192.647 25.3403 192.405 26.0566Q192.163 26.7773 192.009 27.1948L190.652 27.1948Q190.739 26.7949 190.884 26.1226Q191.029 25.4546 191.17 24.6196Q191.311 23.7891 191.385 22.9277L191.447 22.2114L193.288 22.2114Z" fill-rule="nonzero" fill="rgb(255, 255, 255)" fill-opacity="0.85"/>
	<path transform="matrix(1 0 0 1 0 286.137)" d="M208.733 14.3452Q208.632 13.4399 207.894 12.939Q207.155 12.438 206.03 12.438Q205.226 12.438 204.637 12.6885Q204.048 12.939 203.723 13.3784Q203.402 13.8179 203.402 14.376Q203.398 14.8418 203.618 15.1802Q203.842 15.5186 204.202 15.7471Q204.562 15.9712 204.976 16.1206Q205.393 16.27 205.78 16.3667L207.059 16.6963Q207.683 16.8501 208.342 17.1182Q209.001 17.3818 209.559 17.8081Q210.122 18.2344 210.469 18.8672Q210.82 19.5 210.82 20.3833Q210.82 21.4907 210.249 22.3564Q209.678 23.2222 208.592 23.7188Q207.511 24.2153 205.973 24.2153Q204.505 24.2153 203.429 23.7539Q202.356 23.2881 201.75 22.4268Q201.144 21.5654 201.078 20.3789L203.064 20.3789Q203.121 21.0908 203.525 21.561Q203.93 22.0269 204.567 22.2598Q205.204 22.4883 205.964 22.4883Q206.804 22.4883 207.458 22.2246Q208.113 21.9565 208.487 21.4819Q208.865 21.0029 208.869 20.3657Q208.865 19.7812 208.535 19.4121Q208.21 19.0386 207.647 18.7969Q207.085 18.5552 206.386 18.3706L204.839 17.9443Q203.262 17.5181 202.343 16.6875Q201.429 15.8525 201.434 14.4902Q201.429 13.3608 202.04 12.5171Q202.655 11.6689 203.706 11.1987Q204.756 10.7285 206.07 10.7285Q207.401 10.7285 208.416 11.1987Q209.436 11.6646 210.025 12.4819Q210.614 13.2949 210.64 14.3452L208.733 14.3452Z" fill-rule="nonzero" fill="rgb(255, 255, 255)" fill-opacity="0.85"/>
	<path transform="matrix(1 0 0 1 0 286.137)" d="M215.386 18.1685L215.386 24L213.475 24L213.475 10.9087L215.36 10.9087L215.36 15.7822L215.483 15.7822Q215.826 14.9868 216.533 14.521Q217.245 14.0552 218.388 14.0552Q219.398 14.0552 220.154 14.4683Q220.915 14.8813 221.332 15.7075Q221.754 16.5293 221.754 17.7554L221.754 24L219.842 24L219.842 17.9883Q219.842 16.9028 219.284 16.3096Q218.731 15.7119 217.742 15.7119Q217.061 15.7119 216.529 16.002Q215.997 16.2876 215.694 16.8369Q215.391 17.3862 215.386 18.1685Z" fill-rule="nonzero" fill="rgb(255, 255, 255)" fill-opacity="0.85"/>
	<path transform="matrix(1 0 0 1 0 286.137)" d="M227.62 24.2153Q226.684 24.2153 225.932 23.8682Q225.181 23.521 224.737 22.8574Q224.298 22.1895 224.298 21.2271Q224.298 20.3921 224.618 19.856Q224.939 19.3198 225.484 19.0078Q226.029 18.6914 226.697 18.5332Q227.369 18.375 228.068 18.2915Q228.947 18.1904 229.496 18.1245Q230.046 18.0542 230.296 17.9048Q230.547 17.751 230.547 17.4038L230.547 17.3555Q230.547 16.5249 230.076 16.0635Q229.606 15.6021 228.683 15.6021Q227.717 15.6021 227.163 16.0283Q226.609 16.4502 226.394 16.9688L224.601 16.5601Q224.922 15.6636 225.537 15.1143Q226.152 14.5605 226.956 14.3101Q227.765 14.0552 228.653 14.0552Q229.242 14.0552 229.901 14.1958Q230.564 14.332 231.144 14.6968Q231.724 15.0571 232.094 15.7339Q232.463 16.4062 232.463 17.4785L232.463 24L230.595 24L230.595 22.6597L230.516 22.6597Q230.336 23.0244 229.967 23.3848Q229.597 23.7451 229.013 23.9824Q228.433 24.2153 227.62 24.2153ZM228.033 22.686Q228.828 22.686 229.391 22.374Q229.958 22.0576 230.252 21.5522Q230.551 21.0425 230.551 20.4624L230.551 19.1924Q230.45 19.2979 230.16 19.3813Q229.87 19.4648 229.496 19.5308Q229.127 19.5923 228.776 19.6406Q228.424 19.6846 228.187 19.7153Q227.633 19.79 227.172 19.9526Q226.715 20.1152 226.442 20.4272Q226.17 20.7393 226.17 21.249Q226.17 21.9609 226.693 22.3257Q227.22 22.686 228.033 22.686Z" fill-rule="nonzero" fill="rgb(255, 255, 255)" fill-opacity="0.85"/>
	<path transform="matrix(1 0 0 1 0 286.137)" d="M235.456 24L235.456 14.1826L237.306 14.1826L237.306 15.7427L237.411 15.7427Q237.679 14.9517 238.356 14.4946Q239.037 14.0332 239.898 14.0332Q240.079 14.0332 240.32 14.0464Q240.566 14.0596 240.711 14.0815L240.711 15.9097Q240.597 15.8789 240.303 15.835Q240.013 15.791 239.714 15.791Q239.041 15.791 238.51 16.0767Q237.978 16.3623 237.67 16.8633Q237.367 17.3643 237.367 18.0059L237.367 24L235.456 24Z" fill-rule="nonzero" fill="rgb(255, 255, 255)" fill-opacity="0.85"/>
	<path transform="matrix(1 0 0 1 0 286.137)" d="M246.7 24.1978Q245.25 24.1978 244.2 23.5737Q243.154 22.9497 242.587 21.8159Q242.024 20.6821 242.024 19.1572Q242.024 17.6455 242.587 16.4985Q243.154 15.3472 244.173 14.7012Q245.193 14.0552 246.559 14.0552Q247.394 14.0552 248.172 14.3276Q248.954 14.6001 249.57 15.189Q250.189 15.7778 250.55 16.7183Q250.91 17.6543 250.91 18.9902L250.91 19.6626L243.105 19.6626L243.105 18.23L249.034 18.23Q249.034 17.4829 248.726 16.8984Q248.423 16.3096 247.869 15.9712Q247.32 15.6328 246.577 15.6328Q245.768 15.6328 245.171 16.0283Q244.577 16.4194 244.252 17.0522Q243.927 17.6807 243.927 18.4146L243.927 19.5308Q243.927 20.5151 244.274 21.2051Q244.626 21.895 245.25 22.2598Q245.878 22.6201 246.713 22.6201Q247.263 22.6201 247.706 22.4663Q248.155 22.3081 248.48 21.9961Q248.805 21.6841 248.981 21.2183L250.787 21.5435Q250.572 22.3433 250.014 22.9409Q249.455 23.5386 248.612 23.8682Q247.768 24.1978 246.7 24.1978Z" fill-rule="nonzero" fill="rgb(255, 255, 255)" fill-opacity="0.85"/>
</svg>
